<?xml version="1.0" encoding="UTF-8" standalone="no"?>
<!-- Created with Inkscape (http://www.inkscape.org/) -->

<svg
   xmlns:osb="http://www.openswatchbook.org/uri/2009/osb"
   xmlns:dc="http://purl.org/dc/elements/1.1/"
   xmlns:cc="http://creativecommons.org/ns#"
   xmlns:rdf="http://www.w3.org/1999/02/22-rdf-syntax-ns#"
   xmlns:svg="http://www.w3.org/2000/svg"
   xmlns="http://www.w3.org/2000/svg"
   xmlns:sodipodi="http://sodipodi.sourceforge.net/DTD/sodipodi-0.dtd"
   xmlns:inkscape="http://www.inkscape.org/namespaces/inkscape"
   width="177.77612mm"
   height="292.85706mm"
   viewBox="0 0 177.77612 292.85706"
   version="1.1"
   id="svg5017"
   inkscape:version="0.92.1 r15371"
   sodipodi:docname="girl_with_rabbit.svg">
  <defs
     id="defs5011">
    <linearGradient
       id="linearGradient5578"
       osb:paint="solid">
      <stop
         style="stop-color:#000000;stop-opacity:1;"
         offset="0"
         id="stop5576" />
    </linearGradient>
  </defs>
  <sodipodi:namedview
     id="base"
     pagecolor="#ffffff"
     bordercolor="#666666"
     borderopacity="1.0"
     inkscape:pageopacity="0.0"
     inkscape:pageshadow="2"
     inkscape:zoom="0.37119141"
     inkscape:cx="379.28281"
     inkscape:cy="647.05833"
     inkscape:document-units="mm"
     inkscape:current-layer="layer8"
     showgrid="false"
     fit-margin-top="0"
     fit-margin-left="0"
     fit-margin-right="0"
     fit-margin-bottom="0"
     inkscape:window-width="1366"
     inkscape:window-height="706"
     inkscape:window-x="-8"
     inkscape:window-y="-8"
     inkscape:window-maximized="1" />
  <metadata
     id="metadata5014">
    <rdf:RDF>
      <cc:Work
         rdf:about="">
        <dc:format>image/svg+xml</dc:format>
        <dc:type
           rdf:resource="http://purl.org/dc/dcmitype/StillImage" />
        <dc:title></dc:title>
      </cc:Work>
    </rdf:RDF>
  </metadata>
  <g
     inkscape:label="Girl"
     inkscape:groupmode="layer"
     id="layer1"
     transform="translate(207.57234,84.529714)">
    <path
       style="color:#000000;font-style:normal;font-variant:normal;font-weight:normal;font-stretch:normal;font-size:medium;line-height:normal;font-family:sans-serif;font-variant-ligatures:normal;font-variant-position:normal;font-variant-caps:normal;font-variant-numeric:normal;font-variant-alternates:normal;font-feature-settings:normal;text-indent:0;text-align:start;text-decoration:none;text-decoration-line:none;text-decoration-style:solid;text-decoration-color:#000000;letter-spacing:normal;word-spacing:normal;text-transform:none;writing-mode:lr-tb;direction:ltr;text-orientation:mixed;dominant-baseline:auto;baseline-shift:baseline;text-anchor:start;white-space:normal;shape-padding:0;clip-rule:nonzero;display:inline;overflow:visible;visibility:visible;opacity:1;isolation:auto;mix-blend-mode:normal;color-interpolation:sRGB;color-interpolation-filters:linearRGB;solid-color:#000000;solid-opacity:1;vector-effect:none;fill:none;fill-opacity:1;fill-rule:nonzero;stroke:#000000;stroke-width:0.14999999;stroke-linecap:butt;stroke-linejoin:miter;stroke-miterlimit:4;stroke-dasharray:none;stroke-dashoffset:0;stroke-opacity:1;color-rendering:auto;image-rendering:auto;shape-rendering:auto;text-rendering:auto;enable-background:accumulate"
       d="m -102.54019,20.281236 -0.0977,0.0977 c -0.007,0.007 -0.006,0.007 -0.0114,0.0145 h -0.004 l -0.0119,0.0124 c -0.0135,-0.002 -0.0294,-0.005 -0.0548,-0.0114 -0.0657,-0.0164 -0.14857,-0.0521 -0.26202,-0.0238 l 0.0269,-0.004 c -1.22317,0.0544 -2.42152,0.16346 -3.56825,0.38189 l -0.32194,0.061 0.27127,0.18397 c 1.67881,1.13725 3.35852,2.30223 5.03899,3.4406 v 0 0 c 0.78084,0.5116 1.567534,1.08136 2.413804,1.57306 v 0 c 0.1539,0.096 0.34909,0.10993 0.53535,0.0909 0.18646,-0.019 0.36542,-0.0635 0.47956,-0.20051 0.11703,-0.14041 0.10658,-0.31877 0.0884,-0.4935 -0.0182,-0.17473 -0.0604,-0.35475 -0.0868,-0.4868 -0.0241,-0.12052 -0.10308,-0.1964 -0.17468,-0.26046 -0.0716,-0.064 -0.14485,-0.11851 -0.18706,-0.16071 -1.32746,-1.38163 -2.654404,-2.73566 -3.980634,-4.11602 z"
       id="path5610" />
    <path
       style="color:#000000;font-style:normal;font-variant:normal;font-weight:normal;font-stretch:normal;font-size:medium;line-height:normal;font-family:sans-serif;font-variant-ligatures:normal;font-variant-position:normal;font-variant-caps:normal;font-variant-numeric:normal;font-variant-alternates:normal;font-feature-settings:normal;text-indent:0;text-align:start;text-decoration:none;text-decoration-line:none;text-decoration-style:solid;text-decoration-color:#000000;letter-spacing:normal;word-spacing:normal;text-transform:none;writing-mode:lr-tb;direction:ltr;text-orientation:mixed;dominant-baseline:auto;baseline-shift:baseline;text-anchor:start;white-space:normal;shape-padding:0;clip-rule:nonzero;display:inline;overflow:visible;visibility:visible;opacity:1;isolation:auto;mix-blend-mode:normal;color-interpolation:sRGB;color-interpolation-filters:linearRGB;solid-color:#000000;solid-opacity:1;vector-effect:none;fill:none;fill-opacity:1;fill-rule:nonzero;stroke:#000000;stroke-width:0.15;stroke-linecap:butt;stroke-linejoin:miter;stroke-miterlimit:4;stroke-dasharray:none;stroke-dashoffset:0;stroke-opacity:1;color-rendering:auto;image-rendering:auto;shape-rendering:auto;text-rendering:auto;enable-background:accumulate"
       d="m -93.982556,-11.728694 c -0.45715,0.0011 -0.88461,0.06099 -1.23767,0.190685 v 0 5.29e-4 c -0.58261,0.220446 -0.94313,0.951873 -1.22833,1.8040221 -0.28519,0.852151 -0.48154,1.845064 -0.64389,2.629815 v 5.29e-4 5.3e-4 c -0.21119,1.082346 0.12931,2.239549 0.30748,3.562059 -1.35218,-0.723924 -2.45237,-1.559915 -3.651464,-1.719792 v 0 0 c -0.88252,-0.10862 -2.04478,-0.231272 -3.06287,-0.217559 -0.50904,0.0069 -0.9819,0.04689 -1.3715,0.144177 -0.3896,0.09729 -0.70615,0.250198 -0.87177,0.515215 v 0.0016 0.0016 c -0.42754,0.726829 -0.62857,1.820055 -0.61132,2.895431 0.0172,1.075372 0.25021,2.132298 0.75652,2.783292 v 5.29e-4 0.0011 c 2.55884,3.18493 5.787764,5.788401 8.734874,8.62738 v 0 c 0.3414,0.327716 0.84223,0.7816829 1.25109,1.1601349 0.20444,0.189227 0.38579,0.35983 0.51056,0.484208 0.0509,0.05077 0.0846,0.08696 0.11316,0.118856 -2.01107,2.516273 -4.12689,4.957469 -6.219244,7.425389 l -0.0806,0.0951 0.0884,0.0879 c 0.3251,0.32508 0.67742,0.67743 1.00251,1.00252 v 5.3e-4 5.3e-4 c 1.652014,1.62492 3.277374,3.25023 4.930464,4.8762 v 0 c 0.18343,0.18343 0.38737,0.3484 0.63148,0.42322 0.24413,0.0748 0.52588,0.046 0.80978,-0.13332 h 0.003 v 0 c 0.26884,-0.17926 0.40645,-0.41161 0.44183,-0.65527 0.0354,-0.24365 -0.0191,-0.49019 -0.0884,-0.73948 v -0.003 -0.003 c -0.32565,-1.08546 -0.67691,-2.1666 -0.94621,-3.27061 v -5.3e-4 c -0.0887,-0.36782 -0.0554,-0.67769 0.0672,-0.92294 0.12271,-0.24537 0.33602,-0.43186 0.63407,-0.54364 v 0 0 c 0.32557,-0.12522 0.61643,-0.12293 0.87334,-0.0124 0.25691,0.11054 0.48575,0.33467 0.66455,0.67955 l 0.003,0.003 v 0.003 c 0.0987,0.17275 0.15327,0.36192 0.2713,0.56844 l -0.006,-0.0119 c 1.19197,2.68198 2.38432,5.36462 3.6313,8.02122 v 0 c 0.19074,0.40434 0.64558,0.82423 1.23558,1.25987 0.59002,0.43563 1.31736,0.87836 2.05261,1.28003 0.73522,0.40163 1.47799,0.76208 2.09857,1.03145 0.62058,0.26937 1.10469,0.44786 1.38078,0.48731 0.37841,0.0541 0.73088,0.10795 1.11106,0.16227 l 0.17,0.0243 -0.0161,-0.17106 c -0.0492,-0.51715 -0.0986,-1.03841 -0.14777,-1.57562 3.44879,0.39971 6.63165,-1.00779 9.97355,-3.14655 2.31796,-1.48133 2.975,-3.16273 2.975,-4.88913 0,-1.72623 -0.62654,-3.49721 -0.82733,-5.23688 v -5.3e-4 c -0.76372,-6.817403 -4.71924,-10.9950709 -11.07064,-12.7124049 -1.96829,-0.531974 -2.70984,-1.592384 -3.62717,-3.319179 -2.1694,-4.067585 -4.557,-8.056155 -7.32618,-11.7212481 v -5.29e-4 -5.3e-4 c -0.44255,-0.575323 -1.3258,-0.973132 -2.26912,-1.183907 -0.47165,-0.105389 -0.95827,-0.162859 -1.41542,-0.161747 z"
       id="path5614" />
    <path
       style="color:#000000;font-style:normal;font-variant:normal;font-weight:normal;font-stretch:normal;font-size:medium;line-height:normal;font-family:sans-serif;font-variant-ligatures:normal;font-variant-position:normal;font-variant-caps:normal;font-variant-numeric:normal;font-variant-alternates:normal;font-feature-settings:normal;text-indent:0;text-align:start;text-decoration:none;text-decoration-line:none;text-decoration-style:solid;text-decoration-color:#000000;letter-spacing:normal;word-spacing:normal;text-transform:none;writing-mode:lr-tb;direction:ltr;text-orientation:mixed;dominant-baseline:auto;baseline-shift:baseline;text-anchor:start;white-space:normal;shape-padding:0;clip-rule:nonzero;display:inline;overflow:visible;visibility:visible;opacity:1;isolation:auto;mix-blend-mode:normal;color-interpolation:sRGB;color-interpolation-filters:linearRGB;solid-color:#000000;solid-opacity:1;vector-effect:none;fill:#000000;fill-opacity:1;fill-rule:nonzero;stroke:none;stroke-width:0.14999999;stroke-linecap:butt;stroke-linejoin:miter;stroke-miterlimit:4;stroke-dasharray:none;stroke-dashoffset:0;stroke-opacity:1;color-rendering:auto;image-rendering:auto;shape-rendering:auto;text-rendering:auto;enable-background:accumulate"
       d="m -108.91406,21.138672 -0.0723,0.01953 -0.11719,0.03516 c -5.9908,1.778096 -10.38351,5.896269 -12.70703,11.800782 l -0.043,0.111328 0.0723,0.09375 c 1.76751,2.311375 3.69615,4.458046 5.73242,6.521484 1.49778,1.525526 3.34585,2.309234 5.45117,2.392578 1.22546,0.0544 2.4821,0.05509 3.7168,-0.08203 h 0.002 c 2.01427,-0.244971 3.96649,-0.624824 5.9668,-0.949219 0.48451,-0.0765 0.86663,-0.02812 1.136719,0.105469 0.269887,0.13352 0.439231,0.344896 0.521485,0.658203 0.08309,0.345255 0.0329,0.620945 -0.142578,0.867188 -0.17432,0.244627 -0.489905,0.460283 -0.958986,0.613281 h -0.002 c -0.001,3.62e-4 -8.4e-4,0.0016 -0.002,0.002 l -0.008,0.002 c -0.99419,0.349348 -2.02617,0.648471 -3.01562,1.060547 v -0.002 c -0.18767,0.075 -0.35012,0.220785 -0.47657,0.386719 -0.12602,0.165422 -0.2246,0.358933 -0.2246,0.568359 0,0.209762 0.10132,0.396881 0.2207,0.558594 0.11802,0.1599 0.26219,0.296986 0.40625,0.394531 5.5e-4,4.22e-4 0.001,-4.2e-4 0.002,0 7e-4,4.75e-4 0.001,0.0015 0.002,0.002 0.31619,0.241217 0.72744,0.257697 1.0332,0.308594 3.468671,0.596195 6.937753,1.16397 10.404295,1.759766 0.357809,0.06173 0.623543,0.203011 0.783203,0.378906 0.160652,0.176987 0.226655,0.384133 0.181641,0.654297 -0.0466,0.264296 -0.157915,0.435883 -0.341797,0.548828 -0.183167,0.112532 -0.457806,0.16447 -0.830078,0.115234 -1.487011,-0.216302 -2.976812,-0.458803 -4.46875,-0.675781 -1.539381,-0.21606 -3.08677,-0.488812 -4.640624,-0.652344 -0.20534,-0.02063 -0.40469,0.05492 -0.58008,0.152344 -0.17575,0.09759 -0.33382,0.224367 -0.43164,0.380859 l 0.008,-0.01172 -0.01,0.0098 -0.006,0.0098 c -0.14373,0.251549 -0.10864,0.526813 0.0312,0.714844 0.13557,0.182319 0.33836,0.294679 0.53711,0.371093 h 0.002 c 0.29357,0.106764 0.56414,0.216637 0.86523,0.326172 2.764472,1.029886 5.555055,2.031813 8.316411,3.060547 0.360357,0.136828 0.577515,0.318679 0.685547,0.513672 0.108302,0.195451 0.121907,0.413947 0.0293,0.68164 -0.08957,0.244803 -0.243302,0.390735 -0.46875,0.466797 -0.224647,0.07577 -0.52848,0.07144 -0.888672,-0.05273 l -0.002,-0.002 c -1.868655,-0.622902 -3.710222,-1.245892 -5.580078,-1.869141 -1.134938,-0.378329 -2.276698,-0.785543 -3.451168,-1.113281 l -0.01,-0.002 h -0.0137 l 0.0117,0.002 c -0.20228,-0.045 -0.38216,0.0307 -0.53516,0.103516 -0.15407,0.07334 -0.3,0.156847 -0.42187,0.201172 l -0.20508,0.07422 0.082,0.203125 c 0.0946,0.236498 0.14587,0.592911 0.38867,0.871094 0.20217,0.235857 0.48186,0.314528 0.70118,0.40625 l -0.002,0.002 0.041,0.02148 c 0.001,4.99e-4 0.003,0.0015 0.004,0.002 0.001,6.67e-4 0.003,0.0013 0.004,0.002 2.002,1.028056 4.002338,2.056301 5.976561,3.083984 0.282089,0.147171 0.453041,0.320943 0.533203,0.494141 0.08019,0.173326 0.08264,0.348911 -0.0059,0.560547 -0.08782,0.196881 -0.218238,0.317108 -0.400391,0.376953 -0.181327,0.05956 -0.421834,0.05432 -0.712891,-0.05469 -0.779465,-0.295698 -1.5369,-0.620557 -2.298828,-0.919922 h -0.002 c -0.0052,-0.0021 -0.01046,-0.0038 -0.01563,-0.0059 -1.862794,-0.755944 -3.700584,-1.512876 -5.595704,-2.216797 l -0.0137,-0.0059 h -0.0156 l 0.0195,0.0039 c -0.19313,-0.06432 -0.37923,-0.01785 -0.53906,0.0293 -0.16077,0.04752 -0.31279,0.105356 -0.43164,0.126953 l -0.23242,0.04102 0.0684,0.226562 c 0.0792,0.263959 0.16096,0.564233 0.27343,0.847656 4.1e-4,0.0012 0.002,7.8e-4 0.002,0.002 2.3e-4,5.92e-4 -2.4e-4,0.0014 0,0.002 0.0467,0.130132 0.15319,0.185079 0.21679,0.21875 0.0686,0.03633 0.13617,0.06364 0.17774,0.08398 1.2694,0.837126 2.56514,1.674153 3.83203,2.509766 0.31742,0.203169 0.50026,0.403565 0.57031,0.576172 0.0712,0.175503 0.0582,0.33223 -0.0684,0.550781 l -0.002,0.0039 -0.002,0.002 c -0.12672,0.228963 -0.26372,0.329065 -0.45313,0.359375 -0.1876,0.03003 -0.44969,-0.02475 -0.77734,-0.201172 h -0.002 c -2.30143,-1.191346 -4.60251,-2.410982 -6.90625,-3.603515 -2.71335,-1.410931 -5.43692,-2.705951 -7.85156,-4.583985 -3.50301,-2.721569 -6.44606,-5.961523 -9.28711,-9.34375 l -0.18164,-0.216797 -0.15625,0.236328 c -0.80928,1.227907 -1.19574,2.634013 -1.06836,3.939454 0.12735,1.305369 0.78182,2.510178 2.02735,3.289062 1.82656,1.161455 4.32175,1.152552 5.80273,1.447266 0.2667,0.677162 0.46232,1.524023 0.71875,2.326172 0.26842,0.839668 0.60694,1.632886 1.24609,2.074218 3.89297,2.617948 7.85785,5.023643 12.10743,6.25 4.24949,1.226347 8.786698,1.265964 13.773437,-0.83789 1.973955,-0.822481 3.29943,-1.790874 3.947266,-2.986328 0.633593,-1.169162 0.568429,-2.538031 -0.121094,-4.076172 1.216101,-2.855204 2.280428,-5.359089 3.443359,-8.107422 1.326843,-0.0272 2.657667,-0.239533 3.677735,-0.921875 1.057852,-0.707624 1.752457,-1.920117 1.724609,-3.800781 l -0.0039,-0.195313 -0.195313,-0.01172 c -6.984784,-0.404505 -13.568423,-2.374216 -19.917968,-5.238281 l -0.01758,-0.0078 -0.01758,-0.0039 c -0.321717,-0.08039 -0.747191,-0.195069 -1.074211,-0.300781 -0.12861,-0.04154 -0.22195,-0.0772 -0.30469,-0.111328 l 0.0195,-0.02539 -0.2207,-0.115234 c -2.30307,-1.192186 -4.57845,-2.35701 -6.82618,-3.521484 -0.28173,-0.147141 -0.45318,-0.321244 -0.5332,-0.494141 -0.0807,-0.174372 -0.0838,-0.351152 0.006,-0.564453 0.0883,-0.209868 0.21181,-0.315559 0.39258,-0.367188 0.1786,-0.05107 0.42486,-0.03477 0.7207,0.07617 1.54394,0.595878 3.08502,1.163492 4.625,1.757813 0.001,5.22e-4 0.003,0.0014 0.004,0.002 0.002,7.32e-4 0.004,0.0012 0.006,0.002 0.21092,0.08403 0.44733,0.166366 0.68945,0.148437 0.25353,-0.01891 0.49928,-0.193844 0.58594,-0.505859 l 0.002,-0.0098 c 0.0535,-0.213949 -0.0364,-0.417732 -0.14258,-0.607422 -0.10774,-0.192405 -0.25511,-0.378191 -0.4414,-0.490235 -2.30347,-1.517351 -4.65875,-2.979498 -6.98438,-4.466797 -0.29756,-0.185992 -0.48985,-0.403208 -0.57617,-0.605468 -0.087,-0.203885 -0.0809,-0.384906 0.0254,-0.576172 l 0.006,-0.0098 c 0.10899,-0.202847 0.25527,-0.308703 0.4668,-0.345703 0.21215,-0.03718 0.49522,0.0085 0.81836,0.169922 1.43546,0.731282 2.86993,1.460629 4.27734,2.191406 0.72571,0.375354 1.44487,0.769764 2.20898,1.091797 l -0.0234,-0.002 0.18359,0.08203 c 5.5e-4,2.2e-4 0.001,-2.2e-4 0.002,0 0.0167,0.0073 0.032,-0.0037 0.0488,0.002 0,0 -0.0215,-0.07031 -0.0215,-0.07031 l 0.0293,-0.07031 h -0.002 c -0.81613,-0.326953 -1.57474,-0.761192 -2.35742,-1.166015 -1.40811,-0.731144 -2.84189,-1.462082 -4.27734,-2.19336 h -0.002 c -0.34394,-0.171838 -0.65559,-0.228211 -0.91015,-0.183593 -0.25209,0.0441 -0.45099,0.18917 -0.57813,0.429687 -0.12615,0.227093 -0.13282,0.471009 -0.0312,0.708984 0.10224,0.23954 0.31548,0.475481 0.63281,0.673829 2.32798,1.488801 4.68202,2.950081 6.98438,4.466796 l 0.002,0.002 h 0.002 c 0.15236,0.09164 0.28744,0.258271 0.38671,0.435546 0.10099,0.18041 0.16503,0.345855 0.12696,0.498047 v 0.0039 l -0.002,0.002 c -0.0378,0.133418 -0.15109,0.142335 -0.23632,0.207031 -0.0774,0.05872 -0.12285,0.180638 -0.21485,0.1875 -0.20249,0.01499 -0.42019,-0.05608 -0.62695,-0.138672 h -0.002 l -0.10157,-0.04102 v 0.002 c -1.50886,-0.581231 -3.01737,-1.139889 -4.52734,-1.722657 h -0.002 c -0.31693,-0.118853 -0.5937,-0.141253 -0.81446,-0.07813 -0.21865,0.06245 -0.38837,0.2092 -0.49023,0.451172 -0.10234,0.243479 -0.10123,0.477133 -0.004,0.6875 0.0979,0.211543 0.29693,0.404421 0.59961,0.5625 v 0.002 c 2.24818,1.164706 4.52352,2.327557 6.82617,3.519531 l 0.0625,0.0332 -0.0625,0.08203 h 0.13672 c 0.0936,0.04307 0.23201,0.09398 0.39453,0.146484 0.3329,0.107608 0.75785,0.221727 1.082032,0.302735 l 0.0059,0.002 0.0039,0.002 c 6.361494,2.869455 12.965261,4.844185 19.972656,5.25 l 0.05664,0.0039 v 0.05664 c 0.02729,1.843096 -0.640516,2.993072 -1.658204,3.673828 -0.994813,0.665449 -2.316759,0.879964 -3.646484,0.902344 h -0.04883 l -0.01953,0.04492 c -1.172547,2.771191 -2.242868,5.289818 -3.46875,8.167969 l -0.01367,0.03125 0.01367,0.0293 c 0.69558,1.528547 0.749159,2.848691 0.134765,3.982422 -0.623064,1.149745 -1.915702,2.104362 -3.873047,2.919922 -4.956141,2.090946 -9.450778,2.050745 -13.673828,0.832031 -4.22326,-1.218762 -8.17534,-3.613163 -12.06445,-6.228515 -0.58988,-0.407309 -0.92198,-1.165503 -1.1875,-1.996094 -0.25795,-0.806896 -0.45365,-1.676899 -0.73438,-2.376953 l -0.0156,-0.03711 -0.0391,-0.0078 c -1.51036,-0.308446 -4.00818,-0.296559 -5.79493,-1.433594 h -0.002 c -1.20669,-0.754596 -1.83362,-1.912664 -1.95703,-3.177734 -0.1235,-1.26572 0.25444,-2.639444 1.04687,-3.841797 l 0.0449,-0.06641 0.0508,0.06055 c 2.84353,3.385174 5.79415,6.633264 9.31054,9.365235 2.43137,1.891046 5.16282,3.1903 7.87305,4.599609 2.30213,1.191703 4.60477,2.410173 6.90625,3.601563 0.34533,0.18594 0.6371,0.256519 0.87305,0.21875 0.23325,-0.03733 0.42069,-0.179675 0.5625,-0.4375 v -0.002 c 0.14144,-0.24427 0.16509,-0.467365 0.0781,-0.681641 -0.0882,-0.217234 -0.29413,-0.431501 -0.62695,-0.644531 -1.27086,-0.838232 -2.56823,-1.676956 -3.83984,-2.515625 l -0.004,-0.002 -0.006,-0.002 c -0.0504,-0.02466 -0.11207,-0.05036 -0.17187,-0.08203 -0.0689,-0.03648 -0.11873,-0.05718 -0.14649,-0.138672 v -0.002 l -0.002,-0.002 c -0.10904,-0.273902 -0.18913,-0.56999 -0.26953,-0.837891 l -0.0195,-0.06445 0.0664,-0.01172 c 0.14145,-0.0257 0.29408,-0.08558 0.44727,-0.130859 0.15412,-0.04546 0.30426,-0.07953 0.44922,-0.03125 h 0.004 l 0.008,0.0039 c 5.8e-4,2.13e-4 10e-4,-2.12e-4 0.002,0 1.89364,0.703628 3.73234,1.459891 5.597653,2.216797 l 0.0039,0.002 c 5.55e-4,2.19e-4 0.0014,-2.18e-4 0.002,0 0.0027,0.001 0.0051,0.0029 0.0078,0.0039 0.755818,0.297192 1.510966,0.620095 2.291016,0.916015 0.315063,0.117996 0.591346,0.129282 0.8125,0.05664 0.219866,-0.07223 0.388256,-0.228413 0.490234,-0.457031 l 0.002,-0.002 c 0.102156,-0.242838 0.101035,-0.473664 0.0039,-0.683594 -0.09792,-0.211563 -0.296439,-0.408237 -0.59961,-0.566406 -1.977293,-1.029282 -3.981743,-2.058503 -5.986323,-3.087891 l 0.041,0.06836 c 0,0 -0.0762,0 -0.0762,0 l 0.0312,-0.06836 c -0.23943,-0.105444 -0.51286,-0.184282 -0.6914,-0.392578 -0.20674,-0.236858 -0.25756,-0.565816 -0.36329,-0.830078 l -0.0234,-0.05859 0.0605,-0.02148 c 0.14209,-0.05168 0.28725,-0.137371 0.4336,-0.207031 0.14746,-0.07018 0.29112,-0.124796 0.43945,-0.0918 l 0.008,0.002 h 0.008 c 0.001,3.35e-4 0.003,-3.36e-4 0.004,0 1.16223,0.325106 2.2958,0.730094 3.427733,1.107421 1.869445,0.623112 3.711014,1.246103 5.580078,1.869141 0.383549,0.132226 0.721176,0.144118 0.986328,0.05469 0.263133,-0.08878 0.457917,-0.278097 0.560547,-0.558594 0.103751,-0.298248 0.09051,-0.570858 -0.03906,-0.804688 -0.129989,-0.234627 -0.38055,-0.436559 -0.763672,-0.582031 -2.762464,-1.029146 -5.553046,-2.031073 -8.316404,-3.060547 -0.29832,-0.108487 -0.56931,-0.216545 -0.86524,-0.324219 l -0.002,-0.002 c -0.18291,-0.07065 -0.35915,-0.172917 -0.46875,-0.320312 -0.10516,-0.141362 -0.13432,-0.345738 -0.0215,-0.546875 l 0.004,-0.0078 c 0.078,-0.124747 0.21631,-0.238918 0.37696,-0.328125 0.16035,-0.08907 0.33367,-0.148171 0.49218,-0.132812 1.546975,0.162808 3.09197,0.433851 4.634768,0.65039 1.490182,0.216723 2.979981,0.459224 4.46875,0.675782 0.396926,0.05293 0.707758,-3.72e-4 0.929688,-0.136719 0.220546,-0.135465 0.36029,-0.35576 0.412109,-0.652344 0.05129,-0.307797 -0.03126,-0.572744 -0.21875,-0.779297 -0.18848,-0.207645 -0.48623,-0.357762 -0.86914,-0.423828 -3.467298,-0.595925 -6.936382,-1.165654 -10.404295,-1.761719 -0.32152,-0.05352 -0.70303,-0.07502 -0.9707,-0.28125 l -0.002,-0.002 h -0.002 c -0.12874,-0.08664 -0.26466,-0.216437 -0.37305,-0.363281 -0.1104,-0.149547 -0.1914,-0.308312 -0.1914,-0.46875 0,-0.160834 0.0806,-0.326005 0.19531,-0.476562 0.11432,-0.150027 0.25948,-0.276892 0.41211,-0.337891 0.97521,-0.406145 2.00018,-0.705222 2.99609,-1.054688 h 0.006 l 0.01,-0.0039 c 0.492872,-0.159847 0.840916,-0.389122 1.041011,-0.669922 0.199163,-0.279477 0.256926,-0.612489 0.166016,-0.990234 v -0.002 c -0.09093,-0.349526 -0.295811,-0.604596 -0.601562,-0.75586 -0.307195,-0.151934 -0.720475,-0.199044 -1.226565,-0.11914 -2.00333,0.324885 -3.95554,0.705089 -5.96289,0.949218 -1.22296,0.135667 -2.47308,0.136203 -3.69336,0.08203 -2.07175,-0.08202 -3.87696,-0.849676 -5.34961,-2.34961 -2.03302,-2.060141 -3.95797,-4.200734 -5.7207,-6.505859 l -0.0215,-0.02734 0.0137,-0.03125 c 2.30866,-5.866747 6.65991,-9.947066 12.60937,-11.71289 l 0.0449,-0.01367 0.0137,0.04687 0.002,0.0039 c 0.10432,0.260786 0.28637,0.522803 0.57422,0.732422 2.49226,1.787951 4.98476,3.603015 7.47656,5.390625 l 0.004,0.002 0.004,0.0039 c 0.0379,0.03779 0.0862,0.06504 0.14453,0.101563 0.0654,0.04087 0.11272,0.05497 0.14063,0.138672 v 0.002 c 0.11077,0.306267 0.13897,0.604866 0.21875,0.923828 l 0.0156,0.0625 -0.0644,0.01172 c -0.14327,0.02607 -0.30401,0.08025 -0.46484,0.115234 -0.1613,0.03493 -0.31912,0.05196 -0.46289,-0.01172 l -0.01,0.140625 c 0.17325,0.05872 0.34924,0.05107 0.50391,0.01758 0.17112,-0.03722 0.33467,-0.09031 0.46094,-0.113281 l 0.2207,-0.04102 -0.0547,-0.216796 c -0.0761,-0.304118 -0.10271,-0.61036 -0.2207,-0.9375 v -0.002 c -0.0453,-0.133219 -0.15183,-0.186695 -0.20313,-0.21875 -0.0586,-0.03668 -0.11833,-0.07732 -0.11914,-0.07812 l -0.01,-0.01172 -0.0156,-0.0098 v -0.002 c -2.49122,-1.787191 -4.98372,-3.602256 -7.47656,-5.390625 -0.26136,-0.190753 -0.4245,-0.423501 -0.51953,-0.658203 v -0.002 z"
       id="path5606" />
    <path
       style="color:#000000;font-style:normal;font-variant:normal;font-weight:normal;font-stretch:normal;font-size:medium;line-height:normal;font-family:sans-serif;font-variant-ligatures:normal;font-variant-position:normal;font-variant-caps:normal;font-variant-numeric:normal;font-variant-alternates:normal;font-feature-settings:normal;text-indent:0;text-align:start;text-decoration:none;text-decoration-line:none;text-decoration-style:solid;text-decoration-color:#000000;letter-spacing:normal;word-spacing:normal;text-transform:none;writing-mode:lr-tb;direction:ltr;text-orientation:mixed;dominant-baseline:auto;baseline-shift:baseline;text-anchor:start;white-space:normal;shape-padding:0;clip-rule:nonzero;display:inline;overflow:visible;visibility:visible;opacity:1;isolation:auto;mix-blend-mode:normal;color-interpolation:sRGB;color-interpolation-filters:linearRGB;solid-color:#000000;solid-opacity:1;vector-effect:none;fill:#000000;fill-opacity:1;fill-rule:nonzero;stroke:none;stroke-width:0.14999999;stroke-linecap:butt;stroke-linejoin:miter;stroke-miterlimit:4;stroke-dasharray:none;stroke-dashoffset:0;stroke-opacity:1;color-rendering:auto;image-rendering:auto;shape-rendering:auto;text-rendering:auto;enable-background:accumulate"
       d="m -100.76367,60.867188 0.01,-0.01563 v -0.02148 z"
       id="path5604" />
    <path
       style="color:#000000;font-style:normal;font-variant:normal;font-weight:normal;font-stretch:normal;font-size:medium;line-height:normal;font-family:sans-serif;font-variant-ligatures:normal;font-variant-position:normal;font-variant-caps:normal;font-variant-numeric:normal;font-variant-alternates:normal;font-feature-settings:normal;text-indent:0;text-align:start;text-decoration:none;text-decoration-line:none;text-decoration-style:solid;text-decoration-color:#000000;letter-spacing:normal;word-spacing:normal;text-transform:none;writing-mode:lr-tb;direction:ltr;text-orientation:mixed;dominant-baseline:auto;baseline-shift:baseline;text-anchor:start;white-space:normal;shape-padding:0;clip-rule:nonzero;display:inline;overflow:visible;visibility:visible;opacity:1;isolation:auto;mix-blend-mode:normal;color-interpolation:sRGB;color-interpolation-filters:linearRGB;solid-color:#000000;solid-opacity:1;vector-effect:none;fill:#000000;fill-opacity:1;fill-rule:nonzero;stroke:none;stroke-width:0.14999999;stroke-linecap:butt;stroke-linejoin:miter;stroke-miterlimit:4;stroke-dasharray:none;stroke-dashoffset:0;stroke-opacity:1;color-rendering:auto;image-rendering:auto;shape-rendering:auto;text-rendering:auto;enable-background:accumulate"
       d="m -95.335938,58.574219 0.0059,-0.01172 v -0.01758 z"
       id="path5600" />
    <path
       style="color:#000000;font-style:normal;font-variant:normal;font-weight:normal;font-stretch:normal;font-size:medium;line-height:normal;font-family:sans-serif;font-variant-ligatures:normal;font-variant-position:normal;font-variant-caps:normal;font-variant-numeric:normal;font-variant-alternates:normal;font-feature-settings:normal;text-indent:0;text-align:start;text-decoration:none;text-decoration-line:none;text-decoration-style:solid;text-decoration-color:#000000;letter-spacing:normal;word-spacing:normal;text-transform:none;writing-mode:lr-tb;direction:ltr;text-orientation:mixed;dominant-baseline:auto;baseline-shift:baseline;text-anchor:start;white-space:normal;shape-padding:0;clip-rule:nonzero;display:inline;overflow:visible;visibility:visible;opacity:1;isolation:auto;mix-blend-mode:normal;color-interpolation:sRGB;color-interpolation-filters:linearRGB;solid-color:#000000;solid-opacity:1;vector-effect:none;fill:#000000;fill-opacity:1;fill-rule:nonzero;stroke:none;stroke-width:0.14999999;stroke-linecap:butt;stroke-linejoin:miter;stroke-miterlimit:4;stroke-dasharray:none;stroke-dashoffset:0;stroke-opacity:1;color-rendering:auto;image-rendering:auto;shape-rendering:auto;text-rendering:auto;enable-background:accumulate"
       d="m -109.54297,25.734375 c -2.8e-4,5.24e-4 -0.002,-5.25e-4 -0.002,0 l -0.008,0.01563 v 0.02148 z"
       id="path5598" />
    <path
       style="color:#000000;font-style:normal;font-variant:normal;font-weight:normal;font-stretch:normal;font-size:medium;line-height:normal;font-family:sans-serif;font-variant-ligatures:normal;font-variant-position:normal;font-variant-caps:normal;font-variant-numeric:normal;font-variant-alternates:normal;font-feature-settings:normal;text-indent:0;text-align:start;text-decoration:none;text-decoration-line:none;text-decoration-style:solid;text-decoration-color:#000000;letter-spacing:normal;word-spacing:normal;text-transform:none;writing-mode:lr-tb;direction:ltr;text-orientation:mixed;dominant-baseline:auto;baseline-shift:baseline;text-anchor:start;white-space:normal;shape-padding:0;clip-rule:nonzero;display:inline;overflow:visible;visibility:visible;opacity:1;isolation:auto;mix-blend-mode:normal;color-interpolation:sRGB;color-interpolation-filters:linearRGB;solid-color:#000000;solid-opacity:1;vector-effect:none;fill:#000000;fill-opacity:1;fill-rule:nonzero;stroke:none;stroke-width:0.14999999;stroke-linecap:butt;stroke-linejoin:miter;stroke-miterlimit:4;stroke-dasharray:none;stroke-dashoffset:0;stroke-opacity:1;color-rendering:auto;image-rendering:auto;shape-rendering:auto;text-rendering:auto;enable-background:accumulate"
       d="m -101.29297,32.554688 0.002,-0.002 v -0.01172 z"
       id="path3760-8-2" />
    <path
       inkscape:connector-curvature="0"
       style="color:#000000;font-style:normal;font-variant:normal;font-weight:normal;font-stretch:normal;font-size:medium;line-height:normal;font-family:sans-serif;font-variant-ligatures:normal;font-variant-position:normal;font-variant-caps:normal;font-variant-numeric:normal;font-variant-alternates:normal;font-feature-settings:normal;text-indent:0;text-align:start;text-decoration:none;text-decoration-line:none;text-decoration-style:solid;text-decoration-color:#000000;letter-spacing:normal;word-spacing:normal;text-transform:none;writing-mode:lr-tb;direction:ltr;text-orientation:mixed;dominant-baseline:auto;baseline-shift:baseline;text-anchor:start;white-space:normal;shape-padding:0;clip-rule:nonzero;display:inline;overflow:visible;visibility:visible;opacity:1;isolation:auto;mix-blend-mode:normal;color-interpolation:sRGB;color-interpolation-filters:linearRGB;solid-color:#000000;solid-opacity:1;vector-effect:none;fill:none;fill-opacity:1;fill-rule:nonzero;stroke:#000000;stroke-width:0.15;stroke-linecap:butt;stroke-linejoin:miter;stroke-miterlimit:4;stroke-dasharray:none;stroke-dashoffset:0;stroke-opacity:1;color-rendering:auto;image-rendering:auto;shape-rendering:auto;text-rendering:auto;enable-background:accumulate"
       d="m -89.349326,-84.453438 c 3.68458,0.03103 6.98288,0.88035 9.92031,2.448946 4.6999,2.509753 8.48156,6.867451 11.42566,12.688115 l 0.0357,0.06976 0.078,0.0041 c 6.29571,0.348268 11.27736,5.570556 11.27736,11.94759 0,4.528113 -2.51849,8.464814 -6.21514,10.500651 l -0.0201,0.01085 -0.0151,0.01704 c -1.00121,1.109469 -2.13733,2.326997 -3.46284,3.652491 -5.80797,5.807982 -8.637,10.552943 -8.41393,15.13396 0.22304,4.581017 3.49586,8.938461 9.77923,13.973307 v 0 c 0.94314,0.754513 2.0346,1.738763 2.882,2.770373 0.84739,1.031613 1.44106,2.1109151 1.42833,3.0277221 -0.21667,14.544053 -1.02931,29.0903689 -1.54408,41.2284789 l -0.003,0.0537 0.0356,0.0408 c 11.1347,12.76019 20.99511,23.89433 30.61105,35.24385 v 0 c 0.60447,0.70958 1.12144,1.77911 1.41491,2.88303 0.29348,1.10389 0.36187,2.24319 0.10285,3.08507 v 0.003 0.003 c -0.31629,1.23875 -1.1683,2.52412 -2.37919,3.84267 l -0.004,0.004 -0.003,0.004 c -13.25938,16.88539 -23.75403,20.84382 -34.45372,24.717374 l -0.13383,0.048 0.0553,0.13126 c 12.06074,28.74571 2.92185,57.0951 -6.15365,85.45938 v 0 0 c -0.11322,0.36801 -0.1678,0.78317 -0.19532,1.1684 -1.18713,10.82263 -9.9001,18.082 -20.54087,18.53997 v 0 c -4.58349,0.18547 -7.382724,-4.93758 -4.76044,-8.67233 v 0 c 3.3323,-4.76819 6.66848,-9.56852 9.27489,-14.69988 v 0 c 11.12737,-21.90199 9.11672,-44.69791 4.1026,-67.81704 -1.08646,-4.98409 -2.58643,-8.38529 -4.99247,-10.06192 -2.40604,-1.67664 -5.68415,-1.58314 -10.228324,0.3488 l -0.0661,0.0284 -0.014,0.0708 c -1.84068,9.50108 -4.44373,18.44518 -5.09529,27.53992 -1.24648,17.45051 -1.70664,34.98175 -1.73374,52.48465 0,2.2919 1.41701,4.93715 1.78644,7.09724 0.18474,1.08005 0.11343,2.01792 -0.4873,2.74867 -0.60074,0.73076 -1.75884,1.2776 -3.80648,1.50585 v 0 c -1.715,0.1949 -4.4269,-0.94898 -6.72415,-2.54661 -1.14861,-0.7988 -2.19668,-1.70836 -2.97553,-2.6076 -0.77883,-0.89921 -1.28307,-1.78975 -1.3658,-2.52799 v 0 c -2.05828,-18.25397 -3.06041,-36.69797 -3.3042,-55.06175 v 0 c -0.13502,-8.72291 2.38122,-17.49512 3.33108,-26.34257 0.35329,-3.24747 0.29424,-6.10063 -0.35968,-8.44238 -0.65392,-2.341724 -1.91008,-4.173574 -3.93308,-5.343344 l -0.0161,-0.009 -0.0175,-0.005 c -1.54236,-0.40589 -3.05628,-0.83851 -4.56925,-1.35183 l -0.014,-0.005 -0.0151,-0.003 c -1.50072,-0.16375 -3.16378,-0.16343 -5.12268,0.0542 -4.6011,0.50826 -9.54817,-1.99713 -14.42341,-3.00498 v 0 c -3.28414,-0.69186 -5.53591,-2.22485 -7.16698,-4.32789 -1.63119,-2.10315 -2.63846,-4.78261 -3.39982,-7.75716 -1.5227,-5.94905 -2.05589,-13.06894 -4.72424,-19.07273 l -0.009,-0.019 -0.0135,-0.0156 c -3.41815,-3.87572 -6.66075,-7.84717 -9.00668,-14.10145 15.70844,-8.89508 31.79228,-17.97767 49.82435,-28.19672 l 0.0754,-0.0424 -0.007,-0.0863 c -0.79759,-9.8412389 0.6232,-19.2108549 5.43224,-26.8965509 4.80904,-7.6856961 13.00775,-13.6985481 25.809254,-16.8211951 l 0.47286,-0.115239 -0.46458,-0.145211 c -3.13116,-0.980186 -6.21411,-1.319509 -8.863544,-1.755447 -2.64944,-0.435941 -4.85664,-0.972426 -6.2544,-2.304254 -3.5632,-3.402457 -6.55707,-10.450134 -8.62685,-16.683217 -1.03492,-3.116543 -1.84224,-6.030574 -2.38334,-8.186066 -0.27053,-1.077743 -0.47432,-1.966007 -0.60719,-2.594673 -0.0664,-0.314333 -0.11515,-0.563867 -0.1452,-0.738454 -0.0151,-0.08729 -0.0254,-0.155757 -0.031,-0.202573 -0.003,-0.02246 -0.004,-0.03933 -0.005,-0.04961 3.92279,-11.866909 10.03659,-22.015368 23.060494,-25.116287 2.49478,-0.592072 4.8446,-0.868178 7.05538,-0.849562 z"
       id="path439-9" />
  </g>
  <g
     inkscape:groupmode="layer"
     id="layer8"
     inkscape:label="Turtle" />
</svg>
